<svg width="35" height="42" viewBox="0 0 35 42" fill="none" xmlns="http://www.w3.org/2000/svg">
<mask id="mask0_3_18" style="mask-type:luminance" maskUnits="userSpaceOnUse" x="0" y="0" width="35" height="42">
<path d="M34.75 0.948822H0.75V41.8512H34.75V0.948822Z" fill="white"/>
</mask>
<g mask="url(#mask0_3_18)">
<path d="M1.19495 18.7816L5.22298 21.6875L5.19935 18.3327L1.19495 18.7816Z" fill="#B90011"/>
<path d="M34.7499 11.0878V39.914C34.7499 40.985 33.8837 41.8551 32.8127 41.8551H7.16013C6.08914 41.8551 5.2229 40.985 5.2229 39.914V2.89001C5.2229 1.81902 6.08914 0.948837 7.16013 0.948837H23.9219L34.7499 11.0878Z" fill="#F5F5F5"/>
<path d="M20.0003 18.8643H1.55324C1.11225 18.8643 0.75 18.506 0.75 18.0611V9.89476C0.75 9.44982 1.11225 9.09151 1.55324 9.09151H19.9963C20.4413 9.09151 20.7996 9.45376 20.7996 9.89476V18.0611C20.8035 18.506 20.4413 18.8643 20.0003 18.8643Z" fill="#EC0A44"/>
<path d="M4.10864 16.9468V11.2689H5.89232C6.20338 11.2689 6.49475 11.2965 6.7625 11.3556C7.03025 11.4146 7.26256 11.5131 7.45943 11.6509C7.65631 11.7887 7.80987 11.9698 7.92012 12.1942C8.03036 12.4187 8.08549 12.6943 8.08549 13.025C8.08549 13.3361 8.03036 13.6078 7.92012 13.8401C7.80987 14.0724 7.66024 14.2653 7.46337 14.4189C7.27043 14.5725 7.04206 14.6867 6.77825 14.7575C6.51444 14.8284 6.23094 14.8678 5.92382 14.8678H5.10877V16.9507H4.10864V16.9468ZM5.1127 14.0567H5.84901C6.67981 14.0567 7.09719 13.7141 7.09719 13.025C7.09719 12.6667 6.98694 12.4187 6.77038 12.2848C6.55382 12.147 6.23488 12.0801 5.81357 12.0801H5.1127V14.0567Z" fill="white"/>
<path d="M9.15259 16.9468V11.2689H10.6685C11.5348 11.2689 12.212 11.5052 12.6963 11.9737C13.1806 12.4423 13.4247 13.1471 13.4247 14.0842C13.4247 14.5528 13.3617 14.9662 13.2397 15.3245C13.1137 15.6828 12.9365 15.9821 12.7042 16.2223C12.4719 16.4625 12.1884 16.6436 11.8537 16.7656C11.5229 16.8877 11.1449 16.9468 10.7236 16.9468H9.15259ZM10.1566 16.1317H10.5976C11.1764 16.1317 11.6174 15.9663 11.9285 15.6316C12.2356 15.3009 12.3931 14.7812 12.3931 14.0803C12.3931 13.3873 12.2356 12.8794 11.9246 12.5604C11.6135 12.2415 11.1725 12.084 10.5976 12.084H10.1566V16.1317Z" fill="white"/>
<path d="M14.5666 16.9468V11.2689H17.9882V12.1194H15.5706V13.7259H17.6339V14.5764H15.5706V16.9468H14.5666Z" fill="white"/>
<path d="M34.75 11.0878V11.3871H25.1032C24.3669 11.3871 23.7684 10.7886 23.7684 10.0523V0.948837H23.922L34.75 11.0878Z" fill="#EC0A44"/>
<path d="M29.2887 23.2821H10.6802V22.0221H29.2887V23.2821Z" fill="#EC0A44"/>
<path d="M23.036 26.9755H10.6724V25.7155H23.036V26.9755Z" fill="#EC0A44"/>
<path d="M25.871 30.6767H10.6724V29.4167H25.871V30.6767Z" fill="#EC0A44"/>
<path d="M19.3348 34.3779H10.6724V33.1179H19.3348V34.3779Z" fill="#EC0A44"/>
<path d="M30.8322 38.0791H10.6724V36.8191H30.8322V38.0791Z" fill="#EC0A44"/>
</g>
</svg>
